inDegrees=yes
name=ik_S46_A03_T02
DataType=double
version=3
OpenSimVersion=4.3-2021-08-27-4bc7ad9
endheader
time	pelvis_tilt	pelvis_list	pelvis_rotation	pelvis_tx	pelvis_ty	pelvis_tz	hip_flexion_r	hip_adduction_r	hip_rotation_r	knee_angle_r	knee_angle_r_beta	ankle_angle_r	subtalar_angle_r	mtp_angle_r	hip_flexion_l	hip_adduction_l	hip_rotation_l	knee_angle_l	knee_angle_l_beta	ankle_angle_l	subtalar_angle_l	mtp_angle_l	lumbar_extension	lumbar_bending	lumbar_rotation	arm_flex_r	arm_add_r	arm_rot_r	elbow_flex_r	pro_sup_r	wrist_flex_r	wrist_dev_r	arm_flex_l	arm_add_l	arm_rot_l	elbow_flex_l	pro_sup_l	wrist_flex_l	wrist_dev_l
8.799999999999901	-1.557532033587695	8.064073898016954	100.3449133846455	0	0.9399999999999999	0	9.02360460895874	-5.63314368093654	-11.50998614445121	-2.335464595478172	-0.04076154675485157	0	0	0	-21.21049487379127	-1.2379075952259	-1.861058232599913	13.29219759844443	0.2319926129185384	0	0	0	0	0	0	32.39143387264208	-32.39143387264208	4.435678504471425	77.08200805512347	85.56432174360808	0	0	32.39143387264208	-32.39143387264208	4.435678504471425	77.08200805512347	85.56432174350236	0	0
8.819999999999901	-1.548224713933202	8.054156142764938	100.3397151250627	0	0.9399999999999999	0	7.950434600762566	-5.426103038317673	-10.73093260580902	-1.894584104119896	-0.03306673057283924	0	0	0	-18.87910199972502	-2.059861464015732	-3.274960952005434	19.77641181077998	0.3451635003284045	0	0	0	0	0	0	32.52663063335566	-32.52663063335566	4.445962587891089	77.22678394978642	85.55403766070232	0	0	32.52663063335566	-32.52663063335566	4.445962587891089	77.22678394978642	85.55403766059858	0	0
8.8399999999999	-0.4111358250424024	9.798087544260765	99.6589385473397	0	0.9399999999999999	0	5.57025797663853	-3.35197143750911	-9.977301905777185	-1.448540279128974	-0.02528179721855829	0	0	0	-17.99925974061867	-4.08950987667537	-4.579224855698802	25.1842490320583	0.4395480652516123	0	0	0	0	0	0	32.67586331858333	-32.67586331858333	4.45721864772507	77.3852040486836	85.5427816014297	0	0	32.67586331858333	-32.67586331858333	4.45721864772507	77.3852040486836	85.5427816013281	0	0
8.8599999999999	0.1210815259949046	10.50778316725778	99.66258373336116	0	0.9399999999999999	0	3.862779133769755	-2.252213110743187	-10.42023139510921	-1.286766489212455	-0.02245831194108544	0	0	0	-18.617954590008	-4.819507731516603	-4.490466933393856	26.99367490073208	0.4711285042307282	0	0	0	0	0	0	32.67935776748367	-32.67935776748367	4.457525258997276	77.38953280404215	85.54247499017312	0	0	32.67935776748367	-32.67935776748367	4.457525258997276	77.38953280404215	85.54247499007163	0	0
8.8799999999999	1.396806076438894	11.19959707178844	100.0819400079644	0	0.9399999999999999	0	2.330116130033123	-0.62523927996225	-11.04918511285656	-1.167467945655144	-0.02037615956317649	0	0	0	-16.82975995751644	-7.575115933516681	-6.341791580902066	32.60007552274195	0.5689786542706585	0	0	0	0	0	0	32.76145208507506	-32.76145208507506	4.463699499241335	77.47642803676737	85.53630075023699	0	0	32.76145208507506	-32.76145208507506	4.463699499241335	77.47642803676737	85.53630075013666	0	0
8.899999999999899	1.774083639527663	11.32025903168104	100.2304196162139	0	0.9399999999999999	0	0.3498821333020089	0.4007463117846151	-10.50655330205193	-2.228797850881653	-0.03889986085925844	0	0	0	-11.34103609415845	-10.26054947522204	-8.082237206303681	41.85536288222752	0.7305138919118938	0	0	0	0	0	0	32.89820561182614	-32.89820561182614	4.47389211816343	77.61984480172545	85.5261081318222	0	0	32.89820561182614	-32.89820561182614	4.47389211816343	77.61984480172545	85.52610813172382	0	0
8.919999999999899	2.456415915649858	11.49403564180537	100.4232734867633	0	0.9399999999999999	0	-0.4375937373726633	1.617025250799471	-10.53174059657986	-2.557583680315751	-0.04463825611678394	0	0	0	-8.330810192744135	-10.72814031130944	-8.051079032665841	45.03671640244293	0.7860389855095647	0	0	0	0	0	0	32.95443170766068	-32.95443170766068	4.478082469116714	77.67880574711886	85.52191778107749	0	0	32.95443170766068	-32.95443170766068	4.478082469116714	77.67880574711886	85.52191778097992	0	0
8.939999999999898	2.904040250518273	11.23872280109114	100.4438643888333	0	0.9399999999999999	0	-0.9272863878289219	2.691768412229461	-9.970947954836221	-1.707511226645875	-0.02980169291973766	0	0	0	-5.370431448911078	-11.72865439839283	-8.612077103619219	45.04148675440976	0.7861222438578649	0	0	0	0	0	0	33.01637602376564	-33.01637602376564	4.482634444413645	77.74283719844379	85.51736580600662	0	0	33.01637602376564	-33.01637602376564	4.482634444413645	77.74283719844379	85.51736580590992	0	0
8.959999999999898	2.945101812294282	10.8329611610656	100.476385225361	0	0.9399999999999999	0	-1.225573700865599	3.205583278531023	-9.345011973838028	-1.736451986156669	-0.03030680446122887	0	0	0	-5.22426231286563	-12.83832105117117	-9.580981875889403	44.91495126208174	0.7839137828961088	0	0	0	0	0	0	33.01812404944448	-33.01812404944448	4.482785036223136	77.74496174691456	85.5172152142048	0	0	33.01812404944448	-33.01812404944448	4.482785036223136	77.74496174691456	85.51721521410815	0	0
8.979999999999897	2.699629082600472	10.59493493955625	100.4629171616312	0	0.9399999999999999	0	-1.017115818018057	2.929497870687511	-9.199667320682195	-0.9427459301472799	-0.01645402049084651	0	0	0	-2.102965287848903	-13.60809036137802	-10.48170523324592	44.96617506543959	0.7848078069200974	0	0	0	0	0	0	33.08720108527657	-33.08720108527657	4.487842458893618	77.81609803096786	85.51215779178531	0	0	33.08720108527657	-33.08720108527657	4.487842458893618	77.81609803096786	85.51215779168967	0	0
8.999999999999897	2.464165615902373	10.32458792676569	100.3270557718294	0	0.9399999999999999	0	-1.664242262563945	3.112920160183254	-8.37111382575821	-1.618086854882994	-0.02824094320094793	0	0	0	-1.884353027977893	-13.35663234899732	-10.64097739478438	45.12215411844669	0.7875301549592141	0	0	0	0	0	0	33.09053339186986	-33.09053339186986	4.488128817335411	77.82013751700495	85.51187143335814	0	0	33.09053339186986	-33.09053339186986	4.488128817335411	77.82013751700495	85.51187143326251	0	0
9.019999999999897	2.43989196642723	10.32947699383609	99.94323551792593	0	0.9399999999999999	0	-1.700798942489701	3.090440296619931	-8.045937104466246	-0.505383930172228	-0.008820613568174493	0	0	0	6.606815076163356	-9.153101275885087	-5.322069911633276	41.97694717798475	0.7326359381915761	0	0	0	0	0	0	33.22371348306673	-33.22371348306673	4.497874846903215	77.95721758471484	85.50212540427394	0	0	33.22371348306673	-33.22371348306673	4.497874846903215	77.95721758471484	85.50212540418009	0	0
9.039999999999896	2.537202201611336	10.61894349083205	99.26417460717754	0	0.9399999999999999	0	-3.588061336024397	3.832243156797959	-7.039602575062879	-1.313988184738871	-0.0229334201559968	0	0	0	8.282784101929769	-9.224063324068659	-4.774123467014623	43.92873008179556	0.7667009761472104	0	0	0	0	0	0	33.23918997553732	-33.23918997553732	4.499068401115848	77.9740202631174	85.50093185012096	0	0	33.23918997553732	-33.23918997553732	4.499068401115848	77.9740202631174	85.50093185002737	0	0
9.059999999999896	2.601841236327638	10.68635703052093	98.87651892202835	0	0.9399999999999999	0	-4.354930588174605	4.191366882039774	-6.921490010568309	-1.513903601190829	-0.02642260239857911	0	0	0	10.32122336912812	-8.000934579966913	-1.85682287937828	39.7009863186051	0.6929129275488815	0	0	0	0	0	0	33.26888326046998	-33.26888326046998	4.501287517200399	78.00524471068418	85.49871273414691	0	0	33.26888326046998	-33.26888326046998	4.501287517200399	78.00524471068418	85.49871273405374	0	0
9.079999999999895	2.729095989489048	10.63527237691698	98.05875092673006	0	0.9399999999999999	0	-5.088878896445817	4.454679793113816	-6.706231846293496	-1.337358921907547	-0.02334131646820841	0	0	0	11.9210826170735	-6.972231728878234	0.01005821504376106	34.9783552253889	0.6104874656151996	0	0	0	0	0	0	33.29871315685396	-33.29871315685396	4.503498412614928	78.03634872305162	85.49650183884231	0	0	33.29871315685396	-33.29871315685396	4.503498412614928	78.03634872305162	85.49650183874957	0	0
9.099999999999895	2.856952865677261	10.42394946142467	97.07694834098955	0	0.9399999999999999	0	-5.73738002164463	4.666506208780516	-6.617681851413461	-1.129951776401344	-0.01972137888696221	0	0	0	12.8592733241426	-6.72183774081354	0.6506169497616469	30.09348559803733	0.5252304070872461	0	0	0	0	0	0	33.32512174410317	-33.32512174410317	4.505469165532059	78.06407733506892	85.49453108602324	0	0	33.32512174410317	-33.32512174410317	4.505469165532059	78.06407733506892	85.49453108593087	0	0
9.119999999999894	3.034326677489872	9.681625116396534	95.06858833700906	0	0.9399999999999999	0	-5.956903192904936	4.776380823915854	-5.630464010934544	-0.8599304618652512	-0.01500861789774417	0	0	0	13.61273005594043	-6.628681758458815	-0.009619745081397044	24.34396031217245	0.4248822604222358	0	0	0	0	0	0	33.33287913499521	-33.33287913499521	4.506125223994314	78.07332711333591	85.49387502759424	0	0	33.33287913499521	-33.33287913499521	4.506125223994314	78.07332711333591	85.49387502750203	0	0
9.139999999999894	3.04754090050227	9.41015143871493	94.1847876769036	0	0.9399999999999999	0	-7.457716393638181	4.962654828685718	-6.235806957948498	-1.261489110314166	-0.02201713845303615	0	0	0	13.7716513281784	-6.117592465367631	1.058806108920991	18.30957766803063	0.3195624149567598	0	0	0	0	0	0	33.33971204778011	-33.33971204778011	4.506702915078026	78.08147186730984	85.49329733653985	0	0	33.33971204778011	-33.33971204778011	4.506702915078026	78.08147186730984	85.4932973364478	0	0
9.159999999999894	3.115292932141472	9.068618599591534	93.33384369218042	0	0.9399999999999999	0	-8.076153713539169	5.051275034211359	-5.909640504302402	-1.583571913042767	-0.02763854382470162	0	0	0	14.08791481118436	-5.723372002601439	2.897623082787118	12.28834328866642	0.214472050002577	0	0	0	0	0	0	33.34415401560534	-33.34415401560534	4.507132241018818	78.08753613804855	85.49286801062127	0	0	33.34415401560534	-33.34415401560534	4.507132241018818	78.08753613804855	85.49286801052928	0	0
9.179999999999893	3.204691785574624	8.860713864361324	92.9062236563545	0	0.9399999999999999	0	-8.824651294135553	5.239570992460401	-6.231370041964124	-0.5881315178726829	-0.01026483142163019	0	0	0	14.39331493222354	-5.660377386027507	4.372916462742539	7.64115840107053	0.1333633727651062	0	0	0	0	0	0	33.35075604455102	-33.35075604455102	4.507689846597056	78.09539745138996	85.49231040507127	0	0	33.35075604455102	-33.35075604455102	4.507689846597056	78.09539745138996	85.49231040497948	0	0
9.199999999999893	3.483744262042968	8.447225129779163	92.14045692901007	0	0.9399999999999999	0	-9.400711859633432	5.518825325679215	-6.038138948207656	-0.4188187223754186	-0.007309765674447101	0	0	0	14.46272944915557	-5.637660313211474	3.111727363356389	3.074007911795957	0.05365155929319488	0	0	0	0	0	0	33.35533495551088	-33.35533495551088	4.508073789526309	78.100809761552	85.49192646216154	0	0	33.35533495551088	-33.35533495551088	4.508073789526309	78.100809761552	85.49192646206988	0	0
9.219999999999892	3.876164141311885	8.024816565657144	91.46108567765846	0	0.9399999999999999	0	-9.910212773424218	5.950035137450401	-5.879423942803222	-0.1701681682939514	-0.002969994818817273	0	0	0	14.36200035746102	-5.152230988356245	1.259153939907462	-2.397619484719258	-0.04184635421832093	0	0	0	0	0	0	33.29313671284173	-33.29313671284173	4.503770724664241	78.0403456679126	85.49622952681203	0	0	33.29313671284173	-33.29313671284173	4.503770724664241	78.0403456679126	85.49622952671957	0	0
9.239999999999892	4.33604032508199	7.587416830240435	90.86587159202078	0	0.9399999999999999	0	-9.571477220883009	6.269864671176114	-5.385081091367307	0.7948337683666324	0.01387246626403169	0	0	0	14.38766229272097	-4.683643817032632	-0.4495581169321972	-6.676860704756097	-0.1165332029950229	0	0	0	0	0	0	33.25066120005212	-33.25066120005212	4.500847711356603	77.99927885699528	85.49915253997611	0	0	33.25066120005212	-33.25066120005212	4.500847711356603	77.99927885699528	85.49915253988311	0	0
9.259999999999891	4.760991361920262	7.184914549717649	90.38773022504493	0	0.9399999999999999	0	-10.14202881312426	6.759663126299977	-5.460879388768889	1.152409250231164	0.02011333574697303	0	0	0	14.67220040077729	-4.383838933849527	-1.972245166707387	-9.591845665987577	-0.1674092882146315	0	0	0	0	0	0	33.25384890308003	-33.25384890308003	4.501117190773984	78.00307844014577	85.49888306057237	0	0	33.25384890308003	-33.25384890308003	4.501117190773984	78.00307844014577	85.49888306047947	0	0
